<svg id="Layer_1" data-name="Layer 1" xmlns="http://www.w3.org/2000/svg" viewBox="0 0 240.54 59"><defs><style>.cls-1{fill:#d5d6d5;}</style></defs><title>knot3</title><polygon class="cls-1" points="92.53 40.74 89 37.21 112.72 13.49 119.94 20.71 116.4 24.24 112.72 20.56 92.53 40.74"/><polygon class="cls-1" points="100.01 19.02 76.12 42.9 65.94 30.73 9.62 30.73 9.62 25.73 76.52 25.73 76.52 30.73 72.46 30.73 76.45 35.5 96.47 15.48 100.01 19.02"/><polygon class="cls-1" points="111.15 42.9 104.45 34.89 108.29 31.69 111.48 35.5 131.5 15.48 135.03 19.02 111.15 42.9"/><polygon class="cls-1" points="220.3 25.5 220.3 30.5 146.97 30.5 146.97 25.5 152 25.5 147.28 20.78 127.09 40.97 123.56 37.43 147.28 13.71 159.06 25.5 220.3 25.5"/></svg>